#!OML:ASF G:\JayActor3\Patient Classification 1\Patient 1\Session 6\male.ASF
:FULLY-SPECIFIED
:DEGREES
1878
root -36.3119 16.5309 -15.4237 -355.416 -173.28 3.47686
lowerback 12.3638 -1.74837 0.990404
upperback 3.00986 -2.45402 1.36926
thorax -3.74787 -1.35525 1.25458
lowerneck -0.298759 0.32961 -1.74268
upperneck 22.1543 -3.27446 7.6209
head 6.92582 -1.98285 2.47162
rclavicle -4.72114e-015 1.78906e-015
rhumerus -41.9132 8.91884 -85.2092
rradius 56.8807
rwrist -1.42852
rhand -19.3966 2.15118
rfingers 7.12502
rthumb 6.92228 -27.7156
lclavicle -4.72114e-015 1.78906e-015
lhumerus -43.6799 -23.0518 90.2206
lradius 52.8144
lwrist 31.1156
lhand -24.6502 -0.600161
lfingers 7.12502
lthumb 1.84939 29.3716
rfemur -18.5647 6.63972 28.4763
rtibia 38.6314
rfoot -24.5028 -14.2275
rtoes -1.26788
lfemur -12.4398 16.6156 -17.9723
ltibia 27.2675
lfoot -20.1587 1.07261
ltoes -34.4214
1879
root -36.3206 16.5212 -15.4246 -355.69 -173.951 3.53459
lowerback 12.3272 -1.79602 0.872685
upperback 3.04697 -2.53896 1.33494
thorax -3.68475 -1.39847 1.2954
lowerneck -0.388225 -2.62508 -2.01188
upperneck 22.5996 -2.71857 7.02451
head 7.06876 -0.109462 2.56449
rclavicle -1.10822e-014 1.98785e-016
rhumerus -41.7879 8.9163 -85.2708
rradius 56.8828
rwrist -1.41476
rhand -19.3761 2.18822
rfingers 7.12502
rthumb 6.94215 -27.678
lclavicle -1.10822e-014 1.98785e-016
lhumerus -42.9834 -22.7681 90.0001
lradius 52.2027
lwrist 30.8015
lhand -24.6924 -0.555408
lfingers 7.12502
lthumb 1.80863 29.4167
rfemur -18.4643 6.82184 28.5014
rtibia 39.0143
rfoot -24.3038 -13.8775
rtoes -1.62387
lfemur -12.0227 17.2168 -17.8262
ltibia 27.289
lfoot -20.3275 1.21331
ltoes -35.3182
1880
root -36.3295 16.5111 -15.4247 -355.957 -174.645 3.58742
lowerback 12.2806 -1.84719 0.784698
upperback 3.10453 -2.62781 1.27431
thorax -3.59699 -1.4447 1.29153
lowerneck -0.481823 -2.80632 -2.21071
upperneck 22.6268 -3.0207 7.19118
head 7.1143 -0.264858 2.63382
rclavicle -1.44119e-014 4.57205e-015
rhumerus -41.6359 8.90793 -85.3845
rradius 56.8832
rwrist -1.44411
rhand -19.4266 2.12141
rfingers 7.12502
rthumb 6.89338 -27.7464
lclavicle -1.44119e-014 4.57205e-015
lhumerus -42.2356 -22.4881 89.7336
lradius 51.5343
lwrist 30.4767
lhand -24.71 -0.526763
lfingers 7.12502
lthumb 1.79166 29.4455
rfemur -18.3997 6.99693 28.517
rtibia 39.4363
rfoot -24.0666 -13.5048
rtoes -2.07087
lfemur -11.6093 17.7766 -17.6849
ltibia 27.3099
lfoot -20.4815 1.39964
ltoes -36.1622
1881
root -36.3399 16.4996 -15.4255 -356.244 -175.398 3.62936
lowerback 12.2378 -1.88648 0.721318
upperback 3.1896 -2.70201 1.1838
thorax -3.48528 -1.48521 1.2398
lowerneck -0.579068 -2.95878 -2.34559
upperneck 22.6297 -3.28511 7.34063
head 7.1505 -0.399546 2.68794
rclavicle -1.09332e-014 -3.18055e-015
rhumerus -41.4598 8.88353 -85.536
rradius 56.8638
rwrist -1.48816
rhand -19.5142 1.99929
rfingers 7.12502
rthumb 6.8088 -27.8712
lclavicle -1.09332e-014 -3.18055e-015
lhumerus -41.4482 -22.2239 89.4323
lradius 50.8135
lwrist 30.1476
lhand -24.7298 -0.510489
lfingers 7.12502
lthumb 1.77257 29.4619
rfemur -18.3408 7.17107 28.5127
rtibia 39.9041
rfoot -23.7932 -13.0982
rtoes -2.65731
lfemur -11.1514 18.2293 -17.5572
ltibia 27.3254
lfoot -20.6198 1.73155
ltoes -36.78
1882
root -36.3513 16.4874 -15.4267 -356.537 -176.191 3.65692
lowerback 12.2065 -1.91886 0.654856
upperback 3.28538 -2.76928 1.083
thorax -3.36928 -1.52308 1.17817
lowerneck -0.676718 -3.11145 -2.44152
upperneck 22.6164 -3.55059 7.47306
head 7.18143 -0.533976 2.72899
rclavicle 6.65929e-015 3.97569e-016
rhumerus -41.2735 8.87489 -85.7009
rradius 56.8262
rwrist -1.55317
rhand -19.6301 1.84164
rfingers 7.12502
rthumb 6.69692 -28.0325
lclavicle 6.65929e-015 3.97569e-016
lhumerus -40.6346 -21.9462 89.1227
lradius 50.0413
lwrist 29.8189
lhand -24.7405 -0.482415
lfingers 7.12502
lthumb 1.76219 29.4901
rfemur -18.3063 7.34077 28.487
rtibia 40.4201
rfoot -23.4889 -12.6968
rtoes -3.4102
lfemur -10.6702 18.6039 -17.4496
ltibia 27.3308
lfoot -20.7344 2.16195
ltoes -37.2575
